<svg width="117" height="28" viewBox="0 0 117 28" fill="none" xmlns="http://www.w3.org/2000/svg">
<path d="M16.7864 3.01115C21.7802 6.61502 26.5725 6.46449 30.0114 5.28923C30.3086 5.17912 31.0197 4.95198 31.4861 4.92424C32.9637 4.92424 34.1614 6.13527 34.1614 7.62914C34.1614 8.36813 33.8683 9.03791 33.3932 9.52611C33.0887 9.74566 32.7477 9.96675 32.3737 10.1816L32.1024 10.3332C28.7289 12.1648 22.9301 13.3936 16.8262 8.98871C12.0658 5.55325 7.55134 5.52946 4.22155 6.55292L3.90947 6.653C3.70717 6.7206 3.50956 6.79196 3.31686 6.86651C3.12164 6.9117 2.91837 6.93558 2.70959 6.93558C1.21313 6.93558 0 5.70903 0 4.196C0 3.37419 0.357892 2.6369 0.924688 2.13476C1.18708 1.96169 1.47085 1.79014 1.77451 1.62393L2.08918 1.45737C5.42868 -0.251404 10.9182 -1.2237 16.7864 3.01115Z" fill="white"/>
<path d="M15.9704 11.0383C20.2307 14.1214 24.3192 13.9926 27.2529 12.9872C27.5065 12.893 28.1131 12.6987 28.5111 12.675C29.7716 12.675 30.7934 13.711 30.7934 14.989C30.7934 15.6212 30.5433 16.1942 30.138 16.6118C29.8782 16.7997 29.5873 16.9888 29.2682 17.1726L29.0368 17.3022C26.1588 18.8692 21.2117 19.9205 16.0044 16.1521C11.9432 13.2131 8.09183 13.1927 5.25113 14.0683L4.98489 14.1539C4.8123 14.2117 4.64371 14.2728 4.47932 14.3366C4.31277 14.3752 4.13936 14.3957 3.96125 14.3957C2.68459 14.3957 1.64965 13.3463 1.64965 12.052C1.64965 11.3489 1.95497 10.7182 2.43851 10.2886C2.66236 10.1405 2.90446 9.99378 3.16351 9.85159L3.43196 9.70909C6.28095 8.24725 10.9642 7.41546 15.9704 11.0383Z" fill="white"/>
<path d="M15.0075 18.5283C18.6951 21.1947 22.2339 21.0834 24.7733 20.2138C24.9928 20.1323 25.5178 19.9643 25.8623 19.9438C26.9533 19.9438 27.8378 20.8398 27.8378 21.9451C27.8378 22.4918 27.6213 22.9874 27.2705 23.3486C27.0456 23.511 26.7939 23.6746 26.5176 23.8336L26.3173 23.9457C23.8262 25.3009 19.5442 26.2101 15.037 22.951C11.5217 20.4091 8.18808 20.3915 5.72926 21.1488L5.49882 21.2228C5.34943 21.2729 5.2035 21.3256 5.06121 21.3808C4.91705 21.4142 4.76695 21.4319 4.61278 21.4319C3.50775 21.4319 2.61194 20.5244 2.61194 19.4049C2.61194 18.7969 2.87622 18.2514 3.29476 17.8799C3.48851 17.7518 3.69806 17.6249 3.92229 17.5019L4.15465 17.3787C6.62064 16.1144 10.6743 15.395 15.0075 18.5283Z" fill="white"/>
<path d="M42.3632 22.4921V3.52351H45.3457L52.7486 15.1572H51.2307L58.607 3.52351H61.6161V22.4921H57.4353V10.6435L58.1809 10.8315L53.3611 18.4082H50.5916L45.7984 10.8315L46.5174 10.6435V22.4921H42.3632Z" fill="white"/>
<path d="M64.8488 22.4921V9.43441H68.9231V22.4921H64.8488ZM66.8993 7.63427C66.2602 7.63427 65.7276 7.41933 65.3015 6.98944C64.8932 6.54165 64.6891 6.00429 64.6891 5.37738C64.6891 4.73256 64.8932 4.1952 65.3015 3.76532C65.7276 3.33543 66.2602 3.12049 66.8993 3.12049C67.5384 3.12049 68.0621 3.33543 68.4704 3.76532C68.8787 4.1952 69.0829 4.73256 69.0829 5.37738C69.0829 6.00429 68.8787 6.54165 68.4704 6.98944C68.0621 7.41933 67.5384 7.63427 66.8993 7.63427Z" fill="white"/>
<path d="M79.8076 22.4921L76.692 17.4141L75.8132 16.8499L70.727 9.43441H75.4936L78.3962 14.19L79.2484 14.7273L84.5209 22.4921H79.8076ZM70.4874 22.4921L75.7866 14.8886L78.1033 17.5216L74.9344 22.4921H70.4874ZM79.2217 16.823L76.905 14.19L79.8342 9.43441H84.2546L79.2217 16.823Z" fill="white"/>
<path d="M86.069 22.4921V9.43441H90.1432V22.4921H86.069ZM88.1194 7.63427C87.4803 7.63427 86.9477 7.41933 86.5217 6.98944C86.1133 6.54165 85.9092 6.00429 85.9092 5.37738C85.9092 4.73256 86.1133 4.1952 86.5217 3.76532C86.9477 3.33543 87.4803 3.12049 88.1194 3.12049C88.7585 3.12049 89.2822 3.33543 89.6905 3.76532C90.0988 4.1952 90.303 4.73256 90.303 5.37738C90.303 6.00429 90.0988 6.54165 89.6905 6.98944C89.2822 7.41933 88.7585 7.63427 88.1194 7.63427Z" fill="white"/>
<path d="M94.6633 22.4921V8.30596C94.6633 7.24917 94.8941 6.29984 95.3557 5.45798C95.835 4.59822 96.5007 3.92652 97.3529 3.4429C98.205 2.94137 99.2169 2.69061 100.389 2.69061C101.276 2.69061 102.048 2.84286 102.705 3.14736C103.38 3.43395 103.966 3.83696 104.463 4.35641L101.906 6.93571C101.729 6.75659 101.525 6.62225 101.294 6.53269C101.081 6.42522 100.824 6.37149 100.522 6.37149C99.9714 6.37149 99.5365 6.53269 99.2169 6.85511C98.8974 7.17752 98.7376 7.61636 98.7376 8.17162V22.4921H94.6633ZM91.814 12.9272V9.43441H102.466V12.9272H91.814Z" fill="white"/>
<path d="M108.319 22.5459L102.993 9.43441H107.387L110.769 19.8322H109.144L112.606 9.43441H117L111.461 22.5459H108.319ZM104.99 28L108.878 19.5367L111.461 22.5459L109.171 28H104.99Z" fill="white"/>
</svg>
