<svg width="26" height="9" viewBox="0 0 26 9" fill="none" xmlns="http://www.w3.org/2000/svg">
<path d="M12.3956 2.2279C16.0832 4.89435 19.622 4.78298 22.1613 3.91342C22.3808 3.83195 22.9059 3.66389 23.2503 3.64337C24.3414 3.64337 25.2258 4.53939 25.2258 5.64468C25.2258 6.19145 25.0094 6.68701 24.6586 7.04822C24.4337 7.21066 24.1819 7.37424 23.9057 7.53323L23.7054 7.64534C21.2143 9.00056 16.9323 9.90974 12.425 6.6506C8.90976 4.10876 5.57614 4.09116 3.11732 4.8484L2.88688 4.92245C2.73749 4.97247 2.59156 5.02526 2.44927 5.08042C2.30511 5.11386 2.15501 5.13152 2.00084 5.13152C0.895809 5.13152 0 4.22402 0 3.10455C0 2.49651 0.264278 1.951 0.682817 1.57948C0.876573 1.45142 1.08612 1.3245 1.31035 1.20152L1.54271 1.07828C4.0087 -0.186009 8.06236 -0.905398 12.3956 2.2279Z" fill="#1DB95B"/>
</svg>
